<?xml version="1.0" encoding="UTF-8" standalone="no"?>
<!-- Created with Inkscape (http://www.inkscape.org/) -->

<svg
   width="106.12335mm"
   height="128.58197mm"
   viewBox="0 0 106.12335 128.58197"
   version="1.1"
   id="svg1"
   xml:space="preserve"
   inkscape:version="1.4.4 (dcaf3e7d9e, 2026-05-05)"
   sodipodi:docname="Bunker_ikoner_karta.svg"
   xmlns:inkscape="http://www.inkscape.org/namespaces/inkscape"
   xmlns:sodipodi="http://sodipodi.sourceforge.net/DTD/sodipodi-0.dtd"
   xmlns="http://www.w3.org/2000/svg"
   xmlns:svg="http://www.w3.org/2000/svg"><sodipodi:namedview
     id="namedview1"
     pagecolor="#505050"
     bordercolor="#eeeeee"
     borderopacity="1"
     inkscape:showpageshadow="0"
     inkscape:pageopacity="0"
     inkscape:pagecheckerboard="0"
     inkscape:deskcolor="#505050"
     inkscape:document-units="mm"
     inkscape:zoom="1.6051955"
     inkscape:cx="381.57345"
     inkscape:cy="421.44398"
     inkscape:window-width="2560"
     inkscape:window-height="1368"
     inkscape:window-x="1920"
     inkscape:window-y="44"
     inkscape:window-maximized="1"
     inkscape:current-layer="layer7"><inkscape:page
       x="0"
       y="-1.5395477e-20"
       width="106.12335"
       height="128.58195"
       id="page2"
       margin="0"
       bleed="0" /></sodipodi:namedview><defs
     id="defs1" /><g
     inkscape:groupmode="layer"
     id="layer21"
     inkscape:label="PV"
     transform="translate(-55.655323,-52.361181)"><path
       style="opacity:1;fill:#333333;stroke:#0a00ff;stroke-width:4.06501;stroke-dasharray:none;stroke-dashoffset:0;stroke-opacity:1"
       d="m 151.14851,54.393684 h 7.91181 l -15.1643,51.426756 1.15381,59.66822 -6.59318,6.09869 -12.69186,-0.16483 -0.49449,7.25249 -4.61522,0.16483 -0.49449,-11.70288 -30.163766,-0.32966 0.329657,11.20839 -4.450392,0.16483 -0.494487,-7.74698 H 63.459298 l -5.604197,-6.42834 -0.16483,-58.01993 5.604197,-5.43937 h 62.470322 v -6.922832 l 3.95591,-1.648293 0.16483,-4.78005 4.45039,-1.648293 v -4.944883 l 4.12073,-1.483463 -0.32966,-5.27454 4.28556,-1.648293 v -4.78005 l 4.28557,-1.648294 v -5.439367 l 4.61522,-1.483466 z"
       id="path9" /></g></svg>
